<?xml version="1.0" encoding="utf-8"?>
<!-- Generator: Adobe Adobe Illustrator 28.6.0, SVG Export Plug-In . SVG Version: 6.00 Build 0)  -->
<svg version="1.1" id="Layer_1" xmlns="http://www.w3.org/2000/svg" xmlns:xlink="http://www.w3.org/1999/xlink" x="0px" y="0px"
	 width="1280px" height="720px" viewBox="0 0 1280 720" style="enable-background:new 0 0 1280 720;" xml:space="preserve">
<style type="text/css">
	.st0{stroke:#000000;stroke-width:0.6437;stroke-miterlimit:10;}
	.st1{fill:#D1ED8A;stroke:#000000;stroke-width:0.9097;stroke-miterlimit:10;}
	.st2{font-family:'SourceSansPro-Regular';}
	.st3{font-size:23.5117px;}
	.st4{fill:#D1ED8A;stroke:#000000;stroke-width:1.6822;stroke-miterlimit:10;}
	.st5{fill:#DDDDDD;stroke:#000000;stroke-width:0.9097;stroke-miterlimit:10;}
	.st6{font-size:21.0676px;}
	.st7{font-size:14.0451px;}
	.st8{font-size:12.6553px;}
</style>
<line class="st0" x1="171.11" y1="228.18" x2="171.11" y2="250.35"/>
<line class="st0" x1="384.05" y1="241.89" x2="384.05" y2="228.18"/>
<line class="st0" x1="582.83" y1="241.89" x2="582.83" y2="228.18"/>
<line class="st0" x1="967.73" y1="368.99" x2="1033.33" y2="368.99"/>
<line class="st0" x1="1033.48" y1="457.28" x2="1002.54" y2="457.28"/>
<line class="st0" x1="1033.33" y1="540.56" x2="1002.54" y2="539.55"/>
<line class="st0" x1="1034.54" y1="620.66" x2="1002.52" y2="620.66"/>
<line class="st0" x1="1184.22" y1="340.83" x2="1184.22" y2="288.65"/>
<line class="st0" x1="1184.22" y1="476.74" x2="1184.22" y2="450.16"/>
<line class="st0" x1="1189.47" y1="549.83" x2="1189.47" y2="523.25"/>
<line class="st0" x1="1184.22" y1="413.05" x2="1184.22" y2="386.47"/>
<line class="st0" x1="794.35" y1="241.89" x2="794.35" y2="228.18"/>
<line class="st0" x1="980.38" y1="241.89" x2="980.38" y2="228.18"/>
<line class="st0" x1="1196.78" y1="241.89" x2="1196.78" y2="228.18"/>
<rect x="549.36" y="155.5" class="st1" width="181.28" height="45.65"/>
<line class="st1" x1="626.45" y1="201.15" x2="626.45" y2="228.18"/>
<rect x="285.92" y="243" class="st1" width="181.28" height="45.65"/>
<rect x="487.02" y="243" class="st1" width="181.28" height="45.65"/>
<rect x="689.54" y="243" class="st1" width="181.28" height="45.65"/>
<rect x="897.72" y="243" class="st1" width="181.28" height="45.65"/>
<rect x="1084.83" y="337.18" class="st1" width="181.28" height="45.65"/>
<rect x="1079" y="539.55" class="st1" width="181.28" height="45.65"/>
<rect x="1079" y="477.6" class="st1" width="181.28" height="45.65"/>
<rect x="1079" y="411.64" class="st1" width="181.28" height="45.65"/>
<rect x="87.64" y="243" class="st1" width="181.28" height="45.65"/>
<text transform="matrix(1.21 0 0 1 122.9297 270.8809)" class="st2 st3">Gallery</text>
<text transform="matrix(1.21 0 0 1 122.9297 270.8809)" class="st2 st3">Gallery</text>
<text transform="matrix(1.21 0 0 1 307.8516 270.8809)" class="st2 st3">User profile</text>
<text transform="matrix(1.1737 0 0 1 524.1284 270.8809)" class="st2 st3">Products</text>
<text transform="matrix(1.1737 0 0 1 732.9375 270.8809)" class="st2 st3">Shop</text>
<text transform="matrix(1.1737 0 0 1 937.6113 270.8809)" class="st2 st3">Content</text>
<text transform="matrix(1.1737 0 0 1 574.45 183.3783)" class="st2 st3">Home page</text>
<rect x="734.1" y="334.39" class="st4" width="242.17" height="58.52"/>
<rect x="761.81" y="428.02" class="st4" width="242.17" height="58.52"/>
<rect x="761.81" y="513.46" class="st4" width="242.17" height="58.52"/>
<rect x="761.81" y="597.84" class="st4" width="242.17" height="58.52"/>
<rect x="1093.58" y="243" class="st1" width="181.28" height="45.65"/>
<text transform="matrix(1.1737 0 0 1 1125.8076 270.8809)" class="st2 st3">Teams</text>
<text transform="matrix(1.1737 0 0 1 1119.6152 368.7031)" class="st2 st3">Student 1</text>
<text transform="matrix(1.1737 0 0 1 1125.8076 444.8193)" class="st2 st3">Student 2</text>
<text transform="matrix(1.1737 0 0 1 1131.8008 505.4805)" class="st2 st3">Student 3</text>
<text transform="matrix(1.1737 0 0 1 1128.2148 567.4199)" class="st2 st6">Student 4</text>
<text transform="matrix(1.1737 0 0 1 816.4113 460.302)" class="st2 st7">Global warming</text>
<text transform="matrix(1.1737 0 0 1 740.4836 366.3694)" class="st2 st8">Conserve biodiversity and ecosystem</text>
<text transform="matrix(1.21 0 0 1 817.2683 630.1176)" class="st2 st7">Deforestation</text>
<text transform="matrix(1.1737 0 0 1 823.7795 542.5732)" class="st2 st7">Sustainability</text>
<line class="st0" x1="171.11" y1="228.18" x2="1196.91" y2="228.18"/>
<line class="st0" x1="1034.54" y1="288.65" x2="1034.54" y2="619.95"/>
</svg>
